STARTFONT 2.1
FONT -thai-dbthaitext-medium-i-normal--55-401-100-100-p-166-tis620-0
SIZE 40 100 100
FONTBOUNDINGBOX 74 64 -19 -23
STARTPROPERTIES 25
FOUNDRY "thai"
FAMILY_NAME "dbthaitext"
WEIGHT_NAME "medium"
SLANT "i"
SETWIDTH_NAME "normal"
ADD_STYLE_NAME ""
PIXEL_SIZE 55
POINT_SIZE 401
RESOLUTION_X 100
RESOLUTION_Y 100
SPACING "p"
AVERAGE_WIDTH 166
CHARSET_REGISTRY "tis620"
CHARSET_ENCODING "0"
FONT "-thai-dbthaitext-medium-i-normal--55-401-100-100-p-166-tis620-0"
COPYRIGHT "Typeface (c) The Monotype Corporation plc. Data (c) The Monotype Corporation plc/Type Solutions Inc. 1990-1992. All Rights Reserved"
RAW_PIXELSIZE 1000
RAW_POINTSIZE 723
RAW_ASCENT 736
RAW_DESCENT 415
RAW_AVERAGE_WIDTH 2994
FACE_NAME "DBThaiTextItalic5"
DEFAULT_CHAR 0
FONT_ASCENT 41
FONT_DESCENT 23
ENDPROPERTIES
CHARS 190
STARTCHAR space
ENCODING 32
SWIDTH 252 0
DWIDTH 14 0
BBX 0 0 0 0
BITMAP
ENDCHAR
STARTCHAR exclam
ENCODING 33
SWIDTH 162 0
DWIDTH 9 0
BBX 11 24 0 0
BITMAP
00c0
00e0
01c0
01c0
01c0
0380
0380
0380
0700
0700
0f00
0e00
0e00
0c00
1c00
1800
1800
1000
0000
0000
0000
7000
6000
e000
ENDCHAR
STARTCHAR quotedbl
ENCODING 34
SWIDTH 216 0
DWIDTH 12 0
BBX 10 9 1 15
BITMAP
39c0
71c0
7380
7380
6380
e300
c300
c600
8600
ENDCHAR
STARTCHAR numbersign
ENCODING 35
SWIDTH 324 0
DWIDTH 18 0
BBX 21 24 -1 -1
BITMAP
001c38
001c30
001870
003860
0030e0
0070c0
0060c8
07fff0
0ffff0
09c300
018700
038600
030e00
070c80
7fff80
7fff00
9c3000
187000
386000
30e000
70e000
61c000
e1c000
208000
ENDCHAR
STARTCHAR dollar
ENCODING 36
SWIDTH 324 0
DWIDTH 18 0
BBX 20 30 -1 -4
BITMAP
000300
000700
001f80
007fe0
01fff0
03ccf0
038c70
071c70
061870
0e1800
0e3800
0f3000
0ff000
07fc00
03ff00
007f80
00e780
00c380
00c380
61c380
e18700
e18700
e18e00
f31c00
7ff800
3ff000
0f8000
060000
060000
0c0000
ENDCHAR
STARTCHAR percent
ENCODING 37
SWIDTH 540 0
DWIDTH 30 0
BBX 24 25 3 -1
BITMAP
000007
038006
0fe00c
1fe018
307030
607060
e070c0
c061c0
c0e380
e1c700
ff8600
7f0c00
181800
003038
0070fe
00e1ff
01c387
038703
070603
0e0e06
0e0e06
1c0e0c
3807f8
7007f0
2001c0
ENDCHAR
STARTCHAR ampersand
ENCODING 38
SWIDTH 396 0
DWIDTH 22 0
BBX 19 25 0 -1
BITMAP
000600
001f80
007fc0
00e1c0
00c0c0
01c0c0
0181c0
01c380
01c700
01fe00
00f800
01e000
07f000
0e78e0
1c78c0
383dc0
703d80
601f00
e01f00
e00e00
e03f00
f07f00
ffe780
7fc380
1e0000
ENDCHAR
STARTCHAR apostrophe
ENCODING 39
SWIDTH 108 0
DWIDTH 6 0
BBX 5 9 1 15
BITMAP
38
78
70
70
70
e0
e0
c0
80
ENDCHAR
STARTCHAR parenleft
ENCODING 40
SWIDTH 198 0
DWIDTH 11 0
BBX 13 31 2 -7
BITMAP
0010
0030
0060
00c0
0180
0180
0300
0600
0e00
0c00
1c00
1800
3800
3000
7000
6000
6000
6000
e000
c000
c000
c000
c000
c000
c000
c000
c000
c000
6000
6000
6000
ENDCHAR
STARTCHAR parenright
ENCODING 41
SWIDTH 198 0
DWIDTH 11 0
BBX 13 31 -4 -7
BITMAP
0030
0030
0010
0018
0018
0018
0018
0018
0018
0018
0018
0038
0038
0030
0030
0070
0060
0060
00e0
00c0
01c0
0180
0300
0300
0600
0c00
0c00
1800
3000
6000
4000
ENDCHAR
STARTCHAR asterisk
ENCODING 42
SWIDTH 234 0
DWIDTH 13 0
BBX 10 10 1 15
BITMAP
0600
0600
0600
6cc0
ffc0
3f00
3c00
7600
e600
4400
ENDCHAR
STARTCHAR plus
ENCODING 43
SWIDTH 342 0
DWIDTH 19 0
BBX 18 16 1 0
BITMAP
001800
003800
003800
007000
007000
00f000
00e000
7fffc0
ffff80
01c000
03c000
038000
038000
070000
070000
060000
ENDCHAR
STARTCHAR comma
ENCODING 44
SWIDTH 162 0
DWIDTH 9 0
BBX 7 7 1 -3
BITMAP
1e
3e
7e
3c
0c
18
60
ENDCHAR
STARTCHAR minus
ENCODING 45
SWIDTH 198 0
DWIDTH 11 0
BBX 9 2 1 8
BITMAP
7f80
ff00
ENDCHAR
STARTCHAR period
ENCODING 46
SWIDTH 162 0
DWIDTH 9 0
BBX 5 5 2 0
BITMAP
30
78
f8
f0
60
ENDCHAR
STARTCHAR slash
ENCODING 47
SWIDTH 162 0
DWIDTH 9 0
BBX 18 25 -4 -1
BITMAP
0000c0
000180
000180
000300
000600
000600
000c00
001800
001800
003000
006000
006000
00c000
018000
018000
030000
060000
060000
0c0000
180000
180000
300000
600000
600000
c00000
ENDCHAR
STARTCHAR 0
ENCODING 48
SWIDTH 288 0
DWIDTH 16 0
BBX 15 21 0 -1
BITMAP
00f8
01fc
079e
0e0e
0c06
1806
1806
300e
300c
600c
600c
6018
6018
c038
c030
c070
c060
e0c0
7f80
7f00
1c00
ENDCHAR
STARTCHAR 1
ENCODING 49
SWIDTH 288 0
DWIDTH 16 0
BBX 9 20 4 0
BITMAP
0180
0380
0700
1f00
ff00
fe00
0600
0e00
0c00
1c00
1c00
1800
3800
3800
3000
7000
7000
6000
e000
6000
ENDCHAR
STARTCHAR 2
ENCODING 50
SWIDTH 288 0
DWIDTH 16 0
BBX 18 20 -2 0
BITMAP
001f00
007f80
01e3c0
0381c0
0300c0
0700c0
0601c0
000180
000300
000e00
003c00
00f000
03c000
070000
1c0000
380000
300000
700000
7ff800
fff800
ENDCHAR
STARTCHAR 3
ENCODING 51
SWIDTH 288 0
DWIDTH 16 0
BBX 16 21 -1 -1
BITMAP
00fc
01fe
038f
0607
0c03
0c07
0006
000e
003c
01f0
01f8
001c
001c
001c
c018
c018
c030
e070
ffe0
7f80
1c00
ENDCHAR
STARTCHAR 4
ENCODING 52
SWIDTH 288 0
DWIDTH 16 0
BBX 16 20 -1 0
BITMAP
0003
0007
000e
003e
007e
00ec
01cc
039c
0718
0e18
1c38
3830
6030
7ffc
fffc
0060
00e0
00c0
01c0
00c0
ENDCHAR
STARTCHAR 5
ENCODING 53
SWIDTH 288 0
DWIDTH 16 0
BBX 18 21 -1 -1
BITMAP
01ffc0
03ff80
038000
030000
070000
060000
0e0000
0df800
1ffc00
1e3e00
381e00
000e00
000e00
001e00
001c00
e01c00
e03800
f07000
7fe000
7fc000
0c0000
ENDCHAR
STARTCHAR 6
ENCODING 54
SWIDTH 288 0
DWIDTH 16 0
BBX 16 21 0 -1
BITMAP
007c
01fe
03cf
0707
0e07
1c00
1800
3800
33f0
7ff8
7c3c
701c
601c
e01c
e018
c038
e070
e0e0
73c0
7f80
1c00
ENDCHAR
STARTCHAR 7
ENCODING 55
SWIDTH 288 0
DWIDTH 16 0
BBX 18 20 0 0
BITMAP
0fffc0
1fff80
000380
000700
000e00
001c00
003800
007000
00e000
01c000
038000
038000
070000
0e0000
1c0000
180000
380000
700000
e00000
600000
ENDCHAR
STARTCHAR 8
ENCODING 56
SWIDTH 288 0
DWIDTH 16 0
BBX 16 21 0 -1
BITMAP
007c
01fe
038f
0607
0e03
0c07
0c06
0c0c
0ff8
07f0
1ff8
381c
701c
601c
e018
c018
c030
e070
7fe0
7f80
0c00
ENDCHAR
STARTCHAR 9
ENCODING 57
SWIDTH 288 0
DWIDTH 16 0
BBX 16 21 -1 -1
BITMAP
007c
01fe
078f
0607
0c07
1c03
1807
1807
380e
381e
1c3e
1ffc
0fcc
001c
0018
0038
e070
e0e0
ffc0
7f00
1c00
ENDCHAR
STARTCHAR colon
ENCODING 58
SWIDTH 162 0
DWIDTH 9 0
BBX 9 19 0 0
BITMAP
0100
0780
0780
0700
0600
0000
0000
0000
0000
0000
0000
0000
0000
0000
7000
7000
f000
f000
4000
ENDCHAR
STARTCHAR semicolon
ENCODING 59
SWIDTH 162 0
DWIDTH 9 0
BBX 11 21 -1 -3
BITMAP
01e0
03e0
03c0
0380
0000
0000
0000
0000
0000
0000
0000
0000
0000
0000
1e00
3e00
7e00
3e00
0c00
1800
6000
ENDCHAR
STARTCHAR less
ENCODING 60
SWIDTH 342 0
DWIDTH 19 0
BBX 19 16 1 0
BITMAP
000020
0000e0
0007c0
003f80
00fc00
07e000
3f0000
7c0000
f00000
fc0000
3f0000
0fc000
03f000
00fc00
003c00
000c00
ENDCHAR
STARTCHAR equal
ENCODING 61
SWIDTH 342 0
DWIDTH 19 0
BBX 19 8 0 4
BITMAP
3fffe0
3fffc0
000000
000000
000000
000000
7fff80
ffff80
ENDCHAR
STARTCHAR greater
ENCODING 62
SWIDTH 342 0
DWIDTH 19 0
BBX 19 15 -1 1
BITMAP
040000
060000
0fc000
03f000
00fc00
003f00
000fc0
0003e0
0001e0
000fc0
003e00
01f000
0f8000
7c0000
e00000
ENDCHAR
STARTCHAR question
ENCODING 63
SWIDTH 324 0
DWIDTH 18 0
BBX 15 25 4 0
BITMAP
01f0
07fc
0ffc
1c1e
380e
700e
600e
e01c
001c
0038
0070
01e0
03c0
0780
0e00
1c00
1c00
3800
3800
0000
0000
0000
7000
6000
e000
ENDCHAR
STARTCHAR at
ENCODING 64
SWIDTH 612 0
DWIDTH 34 0
BBX 33 30 0 -5
BITMAP
00001f8000
0000ffe000
0003fff800
000fc0fe00
003e003e00
0078000f00
00e0000780
01c0000780
0380fce380
0703fec380
0e078fc380
1c0e078380
181c078300
3838070700
70780e0700
70700e0e00
70e01c0e00
e0e0381c00
e0e0783800
e0e0f07000
e0f1f1e000
e0ff7fc000
f07c3f0000
f000000000
7800000000
3c00000000
1f00200000
0fc1e00000
07fff00000
01ff000000
ENDCHAR
STARTCHAR A
ENCODING 65
SWIDTH 396 0
DWIDTH 22 0
BBX 21 24 -3 0
BITMAP
0000f0
0001f0
0001f0
0003f0
0007f0
000770
000e78
001c78
003c78
003878
007078
00f078
00e078
01c0f8
03fff8
07fff8
070078
0e0078
1e0078
1c0038
380038
780038
f00038
700038
ENDCHAR
STARTCHAR B
ENCODING 66
SWIDTH 396 0
DWIDTH 22 0
BBX 23 24 -1 0
BITMAP
00fff8
01fffc
01c07e
01c01e
03800e
03800e
03801c
07001c
070038
070070
0fffe0
0fffe0
0ffff0
1e00f0
1c0070
1c0030
3c0070
380070
3800f0
7800e0
7003c0
7fff80
ffff00
fffc00
ENDCHAR
STARTCHAR C
ENCODING 67
SWIDTH 432 0
DWIDTH 24 0
BBX 23 26 1 -1
BITMAP
000fe0
003ff0
00fff8
01f87c
03c03c
07801e
0f001e
0e000e
1c0000
3c0000
380000
780000
700000
700000
f00000
f00000
e00038
e00070
f000f0
f001e0
f003c0
780780
7c1f00
3ffe00
1ff800
07c000
ENDCHAR
STARTCHAR D
ENCODING 68
SWIDTH 432 0
DWIDTH 24 0
BBX 24 24 -1 0
BITMAP
00fff0
01fffc
01c03e
01c01e
03800f
038007
038007
070007
070007
070007
0e000e
0e000e
0e000e
1c001c
1c001c
1c0038
380038
380070
3800f0
7801e0
7003c0
7fff00
fffe00
fff800
ENDCHAR
STARTCHAR E
ENCODING 69
SWIDTH 396 0
DWIDTH 22 0
BBX 25 25 -1 0
BITMAP
00000f80
00ffff80
01ffff00
01c00000
01c00000
03c00000
03800000
03800000
07000000
07000000
07000000
0ffff800
0ffff800
0ffff000
1e000000
1c000000
1c000000
3c000000
38000000
38000000
78000000
70000000
7fffc000
ffffc000
ffffc000
ENDCHAR
STARTCHAR F
ENCODING 70
SWIDTH 360 0
DWIDTH 20 0
BBX 24 25 -1 0
BITMAP
00001f
00ffff
01fffe
01c000
01c000
038000
038000
038000
070000
070000
070000
0fffe0
0fffe0
0fffc0
1c0000
1c0000
1c0000
380000
380000
380000
780000
700000
700000
f00000
e00000
ENDCHAR
STARTCHAR G
ENCODING 71
SWIDTH 468 0
DWIDTH 26 0
BBX 24 26 1 -1
BITMAP
0007f0
003ffc
00fffe
01f83e
03c00f
078007
0f0007
0e0007
1c0000
380000
380000
700000
7007fe
600ffc
e00ffc
e0001c
e00018
e00018
e00038
e00070
f000f0
7001f0
7c0760
3f1e60
1ff860
03c040
ENDCHAR
STARTCHAR H
ENCODING 72
SWIDTH 432 0
DWIDTH 24 0
BBX 26 24 -1 0
BITMAP
00800180
01c003c0
01c00380
01c00380
03800380
03800700
03800700
07000700
07000e00
07000e00
0ffffe00
0ffffc00
0ffffc00
1c003c00
1c003800
1c003800
38007800
38007000
38007000
70007000
7000e000
7000e000
f000e000
6001c000
ENDCHAR
STARTCHAR I
ENCODING 73
SWIDTH 162 0
DWIDTH 9 0
BBX 11 24 -1 0
BITMAP
00c0
01e0
01c0
01c0
03c0
0380
0380
0780
0700
0700
0f00
0e00
0e00
1e00
1c00
1c00
3c00
3800
3800
7800
7000
7000
f000
e000
ENDCHAR
STARTCHAR J
ENCODING 74
SWIDTH 306 0
DWIDTH 17 0
BBX 20 25 -2 -1
BITMAP
000060
0000f0
0000e0
0000e0
0001e0
0001c0
0001c0
0003c0
000380
000380
000780
000700
000700
000f00
000e00
000e00
101e00
701c00
601c00
e03800
e03800
f07000
fbe000
7fc000
1e0000
ENDCHAR
STARTCHAR K
ENCODING 75
SWIDTH 396 0
DWIDTH 22 0
BBX 27 24 -1 0
BITMAP
00c00380
01e007c0
01c00f80
01c03e00
03c07c00
0380f000
0383e000
07878000
070f0000
073c0000
0f7c0000
0ffc0000
0fde0000
1f8e0000
1e0f0000
1c0f0000
38070000
38078000
38078000
78038000
7003c000
7001c000
f001c000
6001e000
ENDCHAR
STARTCHAR L
ENCODING 76
SWIDTH 324 0
DWIDTH 18 0
BBX 16 24 -1 0
BITMAP
00c0
01e0
01c0
01c0
03c0
0380
0380
0780
0700
0700
0f00
0e00
0e00
1e00
1c00
1c00
3c00
3800
3800
7800
7000
7fff
ffff
fffe
ENDCHAR
STARTCHAR M
ENCODING 77
SWIDTH 504 0
DWIDTH 28 0
BBX 31 24 -2 0
BITMAP
00f80038
01f8003e
01f8007c
01f800fc
03f801fc
03f801f8
03b803b8
07b80778
07380670
07380ef0
0f381cf0
0e3818e0
0e3839e0
1e3871e0
1c3861c0
1c38e3c0
3c39c3c0
38398380
383b8780
783f0780
703e0700
703e0f00
f03c0f00
60380600
ENDCHAR
STARTCHAR N
ENCODING 78
SWIDTH 432 0
DWIDTH 24 0
BBX 27 24 -1 0
BITMAP
00f000c0
01f001e0
01f001c0
01f801c0
03f803c0
03b80380
03bc0380
07bc0780
071c0700
071c0700
0f1e0f00
0e0e0e00
0e0e0e00
1e0f1e00
1c071c00
1c071c00
3c073c00
3807b800
3803b800
7803f800
7003f000
7001f000
f001f000
6001e000
ENDCHAR
STARTCHAR O
ENCODING 79
SWIDTH 468 0
DWIDTH 26 0
BBX 25 26 0 -1
BITMAP
0007f000
003ffc00
00fffe00
01f83f00
03e00f00
07800780
0f000780
0e000380
1c000380
3c000380
38000380
78000780
70000700
70000700
f0000f00
e0000e00
e0001e00
e0001c00
e0003800
f0007800
f000f000
7801e000
7e0fc000
3fff0000
1ffc0000
03e00000
ENDCHAR
STARTCHAR P
ENCODING 80
SWIDTH 396 0
DWIDTH 22 0
BBX 23 24 -1 0
BITMAP
00fff0
01fffc
01c03e
01c00e
03800e
03800e
03800e
07000c
07001c
070038
0e0078
0ffff0
0fffc0
1fff00
1c0000
180000
380000
380000
380000
700000
700000
700000
e00000
e00000
ENDCHAR
STARTCHAR Q
ENCODING 81
SWIDTH 468 0
DWIDTH 26 0
BBX 25 27 1 -2
BITMAP
0007f000
003ffc00
00fffe00
01f83f00
03e00f00
07800780
0f000780
0e000380
1c000380
3c000380
38000380
78000780
70000700
70000700
f0000700
e0000e00
e0000e00
e0001c00
e0043800
f00e7800
f00ff000
7807e000
7e0fc000
3fffe000
1ffcf000
03e06000
00004000
ENDCHAR
STARTCHAR R
ENCODING 82
SWIDTH 432 0
DWIDTH 24 0
BBX 25 24 -1 0
BITMAP
00fffe00
01ffff00
01c00f80
01c00780
03800780
03800780
03800700
07000700
07000e00
07001e00
0f003c00
0ffff800
0ffff000
1ffff800
1c007800
1c007800
3c007800
38007000
38007000
7800f000
7000f000
7000e000
f000f000
e000f000
ENDCHAR
STARTCHAR S
ENCODING 83
SWIDTH 396 0
DWIDTH 22 0
BBX 22 26 0 -1
BITMAP
000fe0
007ff0
00f1f8
01e07c
03803c
03001c
07001c
06001c
0e0000
0f0000
0fc000
07f800
03ff80
00ffc0
000fe0
0001e0
0000e0
6000e0
e000e0
e000c0
e001c0
e00380
780f00
7ffe00
3ff800
07c000
ENDCHAR
STARTCHAR T
ENCODING 84
SWIDTH 360 0
DWIDTH 20 0
BBX 20 25 4 0
BITMAP
0003f0
7ffff0
ffffe0
c0e000
01e000
01c000
01c000
01c000
038000
038000
038000
070000
070000
070000
0e0000
0e0000
0e0000
1e0000
1c0000
1c0000
3c0000
380000
380000
780000
700000
ENDCHAR
STARTCHAR U
ENCODING 85
SWIDTH 432 0
DWIDTH 24 0
BBX 25 25 1 -1
BITMAP
03000300
07800780
07800700
07800700
0f000f00
0f000e00
0f000e00
1e001e00
1e001c00
1e001c00
1c003c00
3c003800
38003800
38007800
78007000
7000f000
7000f000
f000e000
f001e000
f003c000
f0078000
f80f0000
7e3e0000
3ff80000
0fc00000
ENDCHAR
STARTCHAR V
ENCODING 86
SWIDTH 396 0
DWIDTH 22 0
BBX 20 24 5 0
BITMAP
e000e0
e000f0
e001e0
e003c0
e003c0
e00780
e00700
e00e00
e01e00
e01c00
e03800
e07800
e07000
e0e000
e1e000
f1c000
f38000
778000
770000
7e0000
7c0000
7c0000
780000
700000
ENDCHAR
STARTCHAR W
ENCODING 87
SWIDTH 558 0
DWIDTH 31 0
BBX 32 24 3 0
BITMAP
3001800e
3803e00f
3803e01e
7807c01c
780fc03c
780fc078
781dc078
7819c0f0
7839c0e0
7071c1e0
7071c1c0
70e1c3c0
71c1c780
71c1c700
7381cf00
7381ce00
f701de00
fe01dc00
ee01f800
fc01f800
fc01f000
f803f000
f003e000
7000c000
ENDCHAR
STARTCHAR X
ENCODING 88
SWIDTH 396 0
DWIDTH 22 0
BBX 28 24 -3 0
BITMAP
007000e0
007001c0
00780380
00380700
003c0e00
003c1c00
001c3800
001e7000
001ee000
000fc000
000f8000
000f0000
000f0000
003f8000
007b8000
00f38000
01e3c000
03c1c000
0781e000
0f01e000
1e00e000
3c00f000
7800f000
30007000
ENDCHAR
STARTCHAR Y
ENCODING 89
SWIDTH 396 0
DWIDTH 22 0
BBX 22 24 4 0
BITMAP
f00030
f80078
7800f0
7801e0
7803c0
3c0780
3c0f00
3c1e00
1c3c00
1e7800
1ef000
0fe000
0fc000
0f8000
0f0000
0f0000
0e0000
1e0000
1e0000
1c0000
3c0000
380000
380000
180000
ENDCHAR
STARTCHAR Z
ENCODING 90
SWIDTH 360 0
DWIDTH 20 0
BBX 26 25 -3 0
BITMAP
000007c0
007fffc0
00ffff80
00000780
00000f00
00001e00
00007c00
0000f800
0001f000
0003e000
00078000
000f0000
001e0000
003c0000
00780000
00f00000
01e00000
03c00000
07800000
0f000000
1c000000
78000000
7fffe000
ffffe000
ffffc000
ENDCHAR
STARTCHAR bracketleft
ENCODING 91
SWIDTH 162 0
DWIDTH 9 0
BBX 16 31 -3 -7
BITMAP
003f
007e
0070
0060
00e0
00e0
00c0
01c0
01c0
01c0
0180
0380
0380
0300
0700
0700
0600
0e00
0e00
0c00
1c00
1c00
1c00
3800
3800
3800
3000
7000
7000
7c00
fc00
ENDCHAR
STARTCHAR backslash
ENCODING 92
SWIDTH 162 0
DWIDTH 9 0
BBX 2 25 4 -1
BITMAP
80
c0
c0
c0
c0
c0
c0
c0
c0
c0
c0
c0
c0
c0
c0
c0
c0
c0
c0
c0
c0
c0
c0
c0
c0
ENDCHAR
STARTCHAR bracketright
ENCODING 93
SWIDTH 162 0
DWIDTH 9 0
BBX 16 31 -4 -7
BITMAP
003f
007e
000e
000e
000c
001c
001c
0018
0038
0038
0038
0070
0070
0070
0060
00e0
00e0
00c0
01c0
01c0
0180
0380
0380
0300
0300
0700
0700
0600
0e00
7e00
fc00
ENDCHAR
STARTCHAR asciicircum
ENCODING 94
SWIDTH 288 0
DWIDTH 16 0
BBX 13 13 -1 11
BITMAP
0070
00f0
00f0
01f0
03b0
0330
0638
0e38
1c38
1838
3038
6038
e038
ENDCHAR
STARTCHAR underscore
ENCODING 95
SWIDTH 324 0
DWIDTH 18 0
BBX 20 2 -1 -6
BITMAP
fffff0
fffff0
ENDCHAR
STARTCHAR grave
ENCODING 96
SWIDTH 162 0
DWIDTH 9 0
BBX 10 9 0 5
BITMAP
0f80
3fc0
7fc0
7fc0
ffc0
ff80
ff80
ff00
7e00
ENDCHAR
STARTCHAR a
ENCODING 97
SWIDTH 324 0
DWIDTH 18 0
BBX 18 19 0 -1
BITMAP
007f00
01ff80
03ffc0
0703c0
0e01c0
0c0380
000380
000780
03ff00
0fff00
3f0700
780e00
700e00
e00e00
e03c00
e07c00
ffff00
7f9e00
1c0e00
ENDCHAR
STARTCHAR b
ENCODING 98
SWIDTH 324 0
DWIDTH 18 0
BBX 19 25 -2 -1
BITMAP
008000
01c000
01c000
01c000
038000
038000
039f00
077fc0
07ffc0
07c1e0
0f00e0
0f00e0
0e00e0
1c00e0
1c01e0
1801c0
3801c0
380380
380380
780700
780f00
7c1e00
fffc00
6ff000
03c000
ENDCHAR
STARTCHAR c
ENCODING 99
SWIDTH 306 0
DWIDTH 17 0
BBX 18 19 0 -1
BITMAP
003f00
01ff80
07ffc0
0f87c0
1f03c0
1e03c0
3c0000
3c0000
780000
780000
f80000
f00000
f00700
f01e00
f03e00
f87c00
7ff800
3fe000
1f0000
ENDCHAR
STARTCHAR d
ENCODING 100
SWIDTH 324 0
DWIDTH 18 0
BBX 21 25 -1 -1
BITMAP
000030
000038
000070
000070
000070
000060
00f8e0
03fee0
07ffc0
0f07c0
1c03c0
380380
380380
700380
700300
600700
e00700
e00600
e00e00
e01e00
f03c00
f07c00
79fc00
7f9800
1e1000
ENDCHAR
STARTCHAR e
ENCODING 101
SWIDTH 324 0
DWIDTH 18 0
BBX 18 19 0 -1
BITMAP
003e00
01ff80
07e780
0f03c0
1e03c0
1c03c0
3c03c0
3803c0
7fff80
7fff80
f00000
f00000
f00000
f00e00
f01e00
f03c00
79f800
3fe000
0f0000
ENDCHAR
STARTCHAR f
ENCODING 102
SWIDTH 162 0
DWIDTH 9 0
BBX 13 25 -1 0
BITMAP
0030
00f8
01f0
01c0
0180
0380
0300
0330
1fc0
1fc0
1600
0e00
0c00
0c00
1c00
1c00
1800
3800
3800
3000
7000
7000
7000
e000
e000
ENDCHAR
STARTCHAR g
ENCODING 103
SWIDTH 324 0
DWIDTH 18 0
BBX 21 25 -1 -7
BITMAP
001f38
007fb8
01fff0
03e1f0
0380f0
0700e0
0e00e0
0e00e0
1c00c0
1c01c0
1c01c0
380180
380380
380780
3c0700
1c1f00
1ff700
0fe600
038e00
000e00
e01c00
e03800
f0f000
7fe000
3f0000
ENDCHAR
STARTCHAR h
ENCODING 104
SWIDTH 324 0
DWIDTH 18 0
BBX 18 24 -1 0
BITMAP
008000
01c000
01c000
018000
038000
038000
031f00
077f80
07ffc0
0781c0
0f01c0
0e01c0
0c0180
1c0380
1c0380
180300
380700
380700
300600
700e00
700e00
600c00
e01c00
e00c00
ENDCHAR
STARTCHAR i
ENCODING 105
SWIDTH 126 0
DWIDTH 7 0
BBX 11 24 -2 0
BITMAP
00e0
00c0
01c0
0000
0000
0000
0000
0380
0700
0700
0600
0e00
0e00
0c00
1c00
1c00
3800
3800
3800
7000
7000
7000
e000
6000
ENDCHAR
STARTCHAR j
ENCODING 106
SWIDTH 126 0
DWIDTH 7 0
BBX 16 31 -6 -7
BITMAP
0007
0006
000e
0000
0000
0000
0000
001c
0038
0038
0038
0070
0070
0070
00e0
00e0
00e0
01c0
01c0
01c0
0380
0380
0380
0700
0700
0700
0e00
0e00
1e00
7c00
f000
ENDCHAR
STARTCHAR k
ENCODING 107
SWIDTH 306 0
DWIDTH 17 0
BBX 19 24 -2 0
BITMAP
008000
01c000
01c000
018000
038000
038000
030000
0703c0
070700
060e00
0e3c00
0e7000
0ce000
1fe000
1fe000
1ef000
3c7000
307000
307800
703800
703800
603c00
e01c00
601c00
ENDCHAR
STARTCHAR l
ENCODING 108
SWIDTH 126 0
DWIDTH 7 0
BBX 11 24 -2 0
BITMAP
00c0
00e0
01c0
01c0
01c0
0380
0380
0380
0700
0700
0700
0e00
0e00
0e00
1c00
1c00
1800
3800
3800
3000
7000
7000
6000
e000
ENDCHAR
STARTCHAR m
ENCODING 109
SWIDTH 504 0
DWIDTH 28 0
BBX 28 18 -1 0
BITMAP
039f8fe0
077f9ff0
07e7f8f0
0783e0f0
0f03c0f0
0e0380e0
0e0380e0
1e0780e0
1c0701c0
1c0701c0
380f03c0
380e0380
380e0380
701c0780
701c0780
701c0700
e0380f00
e0180300
ENDCHAR
STARTCHAR n
ENCODING 110
SWIDTH 324 0
DWIDTH 18 0
BBX 18 18 0 0
BITMAP
021f00
077f80
07ffc0
0781c0
0f01c0
0e0180
0c0180
1c0380
180380
180300
380700
380700
300600
700e00
700e00
600c00
e01c00
600c00
ENDCHAR
STARTCHAR o
ENCODING 111
SWIDTH 324 0
DWIDTH 18 0
BBX 18 19 0 -1
BITMAP
007e00
03ff80
07ff80
0f87c0
1e03c0
1c03c0
3c03c0
3803c0
780380
700380
f00780
f00700
f00f00
f01e00
f03e00
f87c00
7ff800
3fe000
0f0000
ENDCHAR
STARTCHAR p
ENCODING 112
SWIDTH 324 0
DWIDTH 18 0
BBX 21 25 -2 -7
BITMAP
0087c0
00dff0
01fff0
01f078
01c038
03c038
038038
030038
070038
070030
060070
0e0070
0e00e0
0e01c0
1f03c0
1f8780
1bff00
39fc00
38f000
300000
700000
700000
700000
e00000
600000
ENDCHAR
STARTCHAR q
ENCODING 113
SWIDTH 324 0
DWIDTH 18 0
BBX 19 25 1 -7
BITMAP
00fc40
03fee0
07ffe0
0f07c0
1e03c0
1c03c0
380380
380380
700380
700300
e00700
e00700
e00e00
e01e00
f03e00
f87c00
7ffc00
3f9c00
1e3800
003800
003800
007000
007000
007000
002000
ENDCHAR
STARTCHAR r
ENCODING 114
SWIDTH 198 0
DWIDTH 11 0
BBX 14 18 -1 0
BITMAP
0218
077c
07f8
07c0
0f00
0e00
0e00
1c00
1c00
1800
3800
3800
3000
7000
7000
7000
e000
e000
ENDCHAR
STARTCHAR s
ENCODING 115
SWIDTH 306 0
DWIDTH 17 0
BBX 17 19 -1 -1
BITMAP
007e00
03ff80
078780
0e0780
0e0380
1c0000
1e0000
1f0000
1ff000
0ffc00
01fe00
001e00
000e00
e00e00
f01c00
f03c00
fff800
7fe000
1f0000
ENDCHAR
STARTCHAR t
ENCODING 116
SWIDTH 162 0
DWIDTH 9 0
BBX 12 23 0 -1
BITMAP
01c0
0380
0380
0380
0710
1fe0
3fc0
2e00
0e00
0e00
1c00
1c00
1c00
3800
3800
3800
7000
7000
7000
e000
fc00
fc00
7800
ENDCHAR
STARTCHAR u
ENCODING 117
SWIDTH 324 0
DWIDTH 18 0
BBX 18 18 1 -1
BITMAP
0c0180
0e01c0
0c0380
1c0380
1c0380
180300
380700
300700
300600
700e00
600c00
601c00
e01c00
e03800
e0f800
fff800
7f0000
3c0000
ENDCHAR
STARTCHAR v
ENCODING 118
SWIDTH 306 0
DWIDTH 17 0
BBX 16 17 3 0
BITMAP
c00e
e00f
e01e
e03c
e038
e070
e0f0
e1e0
e1c0
e380
e780
e700
ee00
fc00
f800
f800
f000
ENDCHAR
STARTCHAR w
ENCODING 119
SWIDTH 432 0
DWIDTH 24 0
BBX 24 17 2 0
BITMAP
403806
703c0f
707c1e
70fc1c
e0dc3c
e1dc78
e19870
e398f0
e338e0
e639c0
ee3bc0
ec3b80
fc3f00
f83f00
f83e00
f03c00
e01800
ENDCHAR
STARTCHAR x
ENCODING 120
SWIDTH 306 0
DWIDTH 17 0
BBX 21 17 -2 0
BITMAP
03c070
01c0f0
01c1e0
01e3c0
00e780
00ee00
00fc00
007800
007000
01f800
03f800
07b800
0f3c00
1e1c00
3c1e00
780e00
700e00
ENDCHAR
STARTCHAR y
ENCODING 121
SWIDTH 306 0
DWIDTH 17 0
BBX 22 24 -2 -7
BITMAP
01c018
01c038
01c078
01c0f0
01c0e0
01c1e0
01c3c0
01c380
01c700
01cf00
01ce00
01dc00
01f800
01f800
01f000
01e000
01e000
03c000
038000
070000
0f0000
5e0000
fc0000
700000
ENDCHAR
STARTCHAR z
ENCODING 122
SWIDTH 306 0
DWIDTH 17 0
BBX 19 17 -2 0
BITMAP
03ffe0
03ffe0
03ffc0
000380
000700
000e00
003c00
007000
00e000
01c000
038000
0f0000
1c0000
380000
7ffc00
fffc00
fffc00
ENDCHAR
STARTCHAR braceleft
ENCODING 123
SWIDTH 198 0
DWIDTH 11 0
BBX 14 32 0 -7
BITMAP
0018
003c
0078
00e0
00c0
00c0
0180
0180
0180
0300
0300
0300
0600
0600
0c00
3800
7000
7800
3800
1800
1800
3800
3000
3000
7000
6000
6000
e000
c000
e000
f000
7000
ENDCHAR
STARTCHAR bar
ENCODING 124
SWIDTH 162 0
DWIDTH 9 0
BBX 12 31 -2 -7
BITMAP
0030
0030
0060
0060
0060
00c0
00c0
00c0
0180
0180
0180
0300
0300
0300
0600
0600
0600
0c00
0c00
0c00
1800
1800
1800
3000
3000
3000
6000
6000
6000
6000
c000
ENDCHAR
STARTCHAR braceright
ENCODING 125
SWIDTH 198 0
DWIDTH 11 0
BBX 14 32 -4 -7
BITMAP
0038
003c
003c
001c
000c
001c
0018
0018
0038
0030
0030
0070
0060
0060
0070
0038
0038
0070
00c0
0180
0380
0300
0300
0700
0600
0600
0e00
0c00
0c00
1800
f800
e000
ENDCHAR
STARTCHAR asciitilde
ENCODING 126
SWIDTH 342 0
DWIDTH 19 0
BBX 16 6 2 9
BITMAP
0400
3f03
7f83
63e6
c1fc
0078
ENDCHAR
STARTCHAR exclamdown
ENCODING 161
SWIDTH 360 0
DWIDTH 20 0
BBX 19 19 0 0
BITMAP
001e00
01ffc0
03c1e0
0e00e0
0f80e0
03c0e0
0700c0
0e00c0
0c01c0
1c0180
180380
380380
380380
300700
700700
700700
600e00
e00e00
600600
ENDCHAR
STARTCHAR cent
ENCODING 162
SWIDTH 360 0
DWIDTH 20 0
BBX 18 19 3 0
BITMAP
078000
1fe1c0
7e61c0
667180
c66380
c66380
fcc300
71c700
038700
030600
070e00
060c00
060c00
0e1c00
0c1800
0c1800
1c3800
7ff000
ffe000
ENDCHAR
STARTCHAR sterling
ENCODING 163
SWIDTH 396 0
DWIDTH 22 0
BBX 21 19 1 0
BITMAP
031800
0ffc38
38ce38
300e30
7e1c70
773870
e37060
c770e0
ee60e0
7ce0c0
30e1c0
00c180
01c380
018380
018300
038700
030700
1ffe00
1ffc00
ENDCHAR
STARTCHAR currency
ENCODING 164
SWIDTH 360 0
DWIDTH 20 0
BBX 18 19 1 0
BITMAP
00fe00
07ff80
1e07c0
3c03c0
30e1c0
63f1c0
6733c0
fe3380
fe7380
ffe780
7fc700
780700
780f00
780e00
700e00
701e00
601c00
e01c00
400c00
ENDCHAR
STARTCHAR yen
ENCODING 165
SWIDTH 360 0
DWIDTH 20 0
BBX 18 19 1 0
BITMAP
008100
03cf80
0e7bc0
1c21c0
38e1c0
73f1c0
7733c0
fe3380
fe7380
ffe780
7fc700
780700
780f00
780e00
700e00
701e00
601c00
e01c00
400c00
ENDCHAR
STARTCHAR brokenbar
ENCODING 166
SWIDTH 450 0
DWIDTH 25 0
BBX 24 19 2 0
BITMAP
031800
0ffc07
38cc07
700c06
7e1c0e
f7300e
e3700c
c6601c
e6601c
7ce018
20c038
07f838
0ffe30
198f70
318360
3381e0
3301e0
3f01c0
3e0040
ENDCHAR
STARTCHAR section
ENCODING 167
SWIDTH 288 0
DWIDTH 16 0
BBX 14 19 1 0
BITMAP
0030
00fc
018c
018c
0198
01f8
20f8
e030
e030
6070
7060
7060
70e0
30e0
38c0
38c0
39c0
1f80
1f00
ENDCHAR
STARTCHAR diaeresis
ENCODING 168
SWIDTH 342 0
DWIDTH 19 0
BBX 14 19 3 0
BITMAP
03c0
1ff8
781c
e00c
400c
060c
1f0c
3198
2198
2398
3ef0
3cf0
00f0
00e0
00e0
00e0
00c0
00c0
00c0
ENDCHAR
STARTCHAR copyright
ENCODING 169
SWIDTH 396 0
DWIDTH 22 0
BBX 19 19 1 0
BITMAP
001e00
00ff80
0383c0
0e01c0
0400c0
0000c0
3e01c0
7e01c0
660180
c60380
ce0380
fc1fc0
2c7fe0
0de760
1b8660
1e0e60
3c0ec0
380f80
100f00
ENDCHAR
STARTCHAR ordfeminine
ENCODING 170
SWIDTH 360 0
DWIDTH 20 0
BBX 20 20 2 0
BITMAP
000030
0fc060
3fe0c0
7e6380
e27e00
c67e00
c66700
fcc700
718600
030600
030600
060c00
060c00
060c00
0e1800
0c1800
0c1800
1c3000
7ff000
ffe000
ENDCHAR
STARTCHAR guillemotleft
ENCODING 171
SWIDTH 396 0
DWIDTH 22 0
BBX 23 21 1 0
BITMAP
000004
00000e
07181c
1ffc38
30cce0
300f80
7e1fc0
7630c0
e270c0
c660c0
ee60c0
7ce1c0
20c180
00c180
01c380
018300
018300
038700
030600
1ffe00
1ffc00
ENDCHAR
STARTCHAR notsign
ENCODING 172
SWIDTH 468 0
DWIDTH 26 0
BBX 26 19 1 0
BITMAP
007c0000
03ff81c0
0e038180
1e038180
07838380
07038300
0e030300
1c070700
18070600
38070600
300e0e00
300e0c00
703f1c00
7e7f9c00
77fdd800
e6dcf800
c6d87800
ecf87000
78f07000
ENDCHAR
STARTCHAR hyphen
ENCODING 173
SWIDTH 468 0
DWIDTH 26 0
BBX 26 28 2 -9
BITMAP
007c0000
03ff81c0
0e038180
1e038180
07838380
07038300
0e030300
1c070700
18070600
38060e00
380e0e00
300e0c00
700c1c00
7e1c1c00
771c1800
e6183800
c6183800
fcfff000
78ffe000
00000000
00000000
00f06000
01f8e000
0338c000
07318000
07738000
03df0000
01fc0000
ENDCHAR
STARTCHAR registered
ENCODING 174
SWIDTH 396 0
DWIDTH 22 0
BBX 23 29 0 -10
BITMAP
0001e0
000ffc
003c1e
00e00e
007806
001c06
00300c
00600c
00c00c
01c018
018018
018018
038030
1f0030
330030
630070
420060
6e0060
7c00e0
0030c0
0030c0
1fe1c0
3fe180
60f180
c1bb80
c39f00
ff0f00
fc0700
300000
ENDCHAR
STARTCHAR macron
ENCODING 175
SWIDTH 396 0
DWIDTH 22 0
BBX 23 29 -1 -10
BITMAP
0001e0
000ffc
003c0e
006006
007806
001c06
003004
00600c
00c00c
00c008
018018
018018
018010
1f0030
330030
630030
420060
660060
3c0060
0060c0
0040c0
00c0c0
3d8180
7f9180
c3b980
c7ef00
cdcf00
f88700
208000
ENDCHAR
STARTCHAR degree
ENCODING 176
SWIDTH 324 0
DWIDTH 18 0
BBX 25 30 -3 -11
BITMAP
0003e000
000ffe00
001c1f80
003e0000
003fe000
0001f000
00007000
00083000
003e3000
00663000
00c67000
00c76000
00ff6000
00fbe000
0003c000
0003c000
0003c000
00038000
00038000
00000000
00000000
019e0000
01930000
03220000
3f360000
7e3e0000
c64c0000
cffc0000
fb780000
02200000
ENDCHAR
STARTCHAR plusminus
ENCODING 177
SWIDTH 468 0
DWIDTH 26 0
BBX 24 19 1 0
BITMAP
031800
0ffc3f
38cc77
300cc3
7e1d87
763306
e37706
c66e0e
ce6c0c
7cf80c
20f01c
00f018
01e018
01c038
01c030
038030
038070
030060
070020
ENDCHAR
STARTCHAR twosuperior
ENCODING 178
SWIDTH 504 0
DWIDTH 28 0
BBX 27 19 1 0
BITMAP
00810000
03cf80e0
0e79c0e0
1c21c0c0
3801c1c0
71f1c1c0
63b18180
67338380
e6338380
e7738700
e7e70700
63870700
671f8e00
7e3fce00
7c7eec00
786e7c00
707c3c00
607c3800
60783800
ENDCHAR
STARTCHAR threesuperior
ENCODING 179
SWIDTH 486 0
DWIDTH 27 0
BBX 25 19 1 0
BITMAP
007c0000
03ff0380
0e038300
1e038300
07030700
07030600
0c030600
18070600
18060c00
30060c00
300e0c00
300c3e00
700cff00
7e1dbb00
661f3300
c61e3300
c43c3200
ec387c00
78103800
ENDCHAR
STARTCHAR acute
ENCODING 180
SWIDTH 360 0
DWIDTH 20 0
BBX 18 19 1 0
BITMAP
00ff00
07ff80
0e03c0
1c01c0
3801c0
71f1c0
63b1c0
673380
e63380
e77380
e7e700
638700
670700
7e0e00
7c0e00
781e00
701c00
601c00
600c00
ENDCHAR
STARTCHAR mu
ENCODING 181
SWIDTH 360 0
DWIDTH 20 0
BBX 18 19 1 0
BITMAP
008100
03cf80
0e79c0
1c21c0
3801c0
71f1c0
63b180
673380
e63380
e77300
e7e700
638700
670600
7e0e00
7c0e00
781e00
701c00
601c00
600c00
ENDCHAR
STARTCHAR paragraph
ENCODING 182
SWIDTH 360 0
DWIDTH 20 0
BBX 18 19 1 0
BITMAP
003c00
01ff80
0783c0
1c01c0
0f01c0
0781c0
0e0180
1c0180
180380
380300
300300
300700
700700
7e0600
660e00
c60e00
c60c00
ec1c00
780c00
ENDCHAR
STARTCHAR periodcentered
ENCODING 183
SWIDTH 360 0
DWIDTH 20 0
BBX 19 19 2 0
BITMAP
0c0000
3f07e0
630ee0
631ce0
e630e0
7e60c0
3ee1c0
0dc1c0
0f8180
1b0380
1e0380
1e0300
3c0700
380700
380600
700e00
600e00
600c00
e00400
ENDCHAR
STARTCHAR cedilla
ENCODING 184
SWIDTH 324 0
DWIDTH 18 0
BBX 20 19 -1 0
BITMAP
007800
03fff0
0703f0
0fc000
1ff800
003e00
000e00
030700
030700
070600
060600
060e00
0e0c00
0c0c00
0c1c00
1c1800
181800
fff800
ffe000
ENDCHAR
STARTCHAR onesuperior
ENCODING 185
SWIDTH 396 0
DWIDTH 22 0
BBX 18 19 3 0
BITMAP
0c0000
3e01c0
6201c0
420180
c60380
7e0380
3c0300
0c0700
1c0600
180600
180e00
383f00
31ff80
339d80
761980
7c1980
781b00
f03e00
e03c00
ENDCHAR
STARTCHAR masculine
ENCODING 186
SWIDTH 396 0
DWIDTH 22 0
BBX 22 19 0 0
BITMAP
030000
0fc01c
1cc01c
18c018
19c038
1f8038
0f8030
038070
030070
0300e0
0700e0
0600c0
0601c0
0e01c0
0c0180
1c0380
180380
ffff00
fffe00
ENDCHAR
STARTCHAR guillemotright
ENCODING 187
SWIDTH 396 0
DWIDTH 22 0
BBX 24 26 -1 0
BITMAP
000003
000007
000006
000006
00000e
00000c
00000c
07801c
0fc018
18c018
18c038
19c030
1f8030
0f8070
038060
030060
0300e0
0600c0
0600c0
0e01c0
0c0180
0c0180
1c0380
180300
ffff00
fffe00
ENDCHAR
STARTCHAR onequarter
ENCODING 188
SWIDTH 378 0
DWIDTH 21 0
BBX 21 19 0 0
BITMAP
004000
01f038
023038
063030
066070
0fc070
0f8060
0c00e0
1c20e0
1820c0
18f1c0
39b9c0
331980
361f80
7c0f00
780700
700700
e00600
600200
ENDCHAR
STARTCHAR onehalf
ENCODING 189
SWIDTH 378 0
DWIDTH 21 0
BBX 23 26 -1 0
BITMAP
000006
00000e
00000c
00000c
00001c
000018
000018
01e038
03f030
063030
042030
066060
0fc060
0f8060
0c00c0
1c20c0
1860c0
18f180
39b980
331980
361f00
7c0f00
700700
600700
e00600
600200
ENDCHAR
STARTCHAR threequarters
ENCODING 190
SWIDTH 432 0
DWIDTH 24 0
BBX 22 19 3 0
BITMAP
0c0000
3f041c
63041c
420c18
c61e38
7e3638
3c6630
0c4670
1cc670
198660
1b06e0
3e06e0
3606c0
3c07c0
780380
700380
700380
e00300
e00100
ENDCHAR
STARTCHAR questiondown
ENCODING 191
SWIDTH 432 0
DWIDTH 24 0
BBX 24 26 2 0
BITMAP
000003
000007
000006
000006
00000e
00000c
00000c
1e041c
3e0418
620c18
421c38
c61c30
7e3630
3c6630
0cc660
1cc660
198660
1b06c0
3e06c0
3406c0
3c0780
780380
700380
600380
e00300
c00300
ENDCHAR
STARTCHAR Agrave
ENCODING 192
SWIDTH 396 0
DWIDTH 22 0
BBX 22 19 -1 0
BITMAP
0003c0
001ff8
00781c
01c01c
00f00c
00380c
006018
00c018
018018
018030
030030
030030
030060
3e0060
660060
c600e0
8400c0
ec00c0
f800c0
ENDCHAR
STARTCHAR Aacute
ENCODING 193
SWIDTH 396 0
DWIDTH 22 0
BBX 22 19 0 0
BITMAP
008000
03e01c
04601c
0c6018
0cc038
0fc038
07c030
018070
018070
038060
0300e0
1fe0e0
3ff8c0
663dc0
460f80
c60780
cc0780
fc0300
780100
ENDCHAR
STARTCHAR Acircumflex
ENCODING 194
SWIDTH 342 0
DWIDTH 19 0
BBX 20 19 -1 0
BITMAP
00f000
01f870
031870
071860
0fb0e0
0de0e0
0c00c0
0c01c0
0e01c0
078180
078380
1e0300
380300
300700
700600
600600
600e00
fffc00
fff800
ENDCHAR
STARTCHAR Atilde
ENCODING 195
SWIDTH 306 0
DWIDTH 17 0
BBX 16 19 3 0
BITMAP
07c0
1ffc
303f
7c00
7fc0
03e0
00e0
0060
0060
0060
00e0
00c0
00c0
0fc0
1980
3180
3180
3b00
3e00
ENDCHAR
STARTCHAR Adiaeresis
ENCODING 196
SWIDTH 360 0
DWIDTH 20 0
BBX 18 29 2 -10
BITMAP
003c00
01ff80
0783c0
1c01c0
0f01c0
0781c0
0e0180
1c0180
180380
380380
300300
300700
700700
7e0600
660e00
c60e00
c60c00
fc1c00
781c00
001800
003800
003800
003000
003000
007000
006000
006000
00e000
00c000
ENDCHAR
STARTCHAR Aring
ENCODING 197
SWIDTH 342 0
DWIDTH 19 0
BBX 18 19 0 0
BITMAP
003c00
03ff80
0f83c0
1c01c0
0801c0
03c1c0
0fe380
1ef380
1c7380
383f00
303f00
703f00
601f00
7f1e00
f71e00
e71e00
e61c00
ee1c00
7c0c00
ENDCHAR
STARTCHAR AE
ENCODING 198
SWIDTH 396 0
DWIDTH 22 0
BBX 22 29 0 -10
BITMAP
0003c0
001ff8
00781c
01c01c
00f00c
00380c
006018
00c018
018018
018030
030030
030030
030020
3e0060
660060
c60060
8400c0
cc00c0
7800c0
000180
000180
000180
000300
000300
000300
000600
000600
000600
000c00
ENDCHAR
STARTCHAR Ccedilla
ENCODING 199
SWIDTH 324 0
DWIDTH 18 0
BBX 14 19 3 0
BITMAP
03c0
1ff8
701c
e00c
400c
000c
0018
0018
0018
0038
0030
0030
0070
07e0
0e60
0c60
08c0
0dc0
0f80
ENDCHAR
STARTCHAR Egrave
ENCODING 200
SWIDTH 360 0
DWIDTH 20 0
BBX 21 20 1 0
BITMAP
000010
01fe38
07fff0
1e07e0
3803c0
38e7c0
73ff80
673380
ee3380
ee7380
ffe700
7bc700
780700
780e00
700e00
700e00
701c00
601c00
e01c00
400800
ENDCHAR
STARTCHAR Eacute
ENCODING 201
SWIDTH 396 0
DWIDTH 22 0
BBX 23 19 0 0
BITMAP
030000
0f8018
18c038
108038
118030
1f8470
0f1e76
03226c
0762ec
0766f8
067fe0
061fc0
0e0180
0c0180
0c0380
1c0300
180300
fffe00
fffc00
ENDCHAR
STARTCHAR Ecircumflex
ENCODING 202
SWIDTH 342 0
DWIDTH 19 0
BBX 20 21 0 0
BITMAP
000020
000070
007ce0
03ffe0
0f0380
180780
080d80
03d980
0ff380
1cf380
187300
303700
303700
703e00
603e00
7e1e00
e61c00
c61c00
c61c00
cc1800
781800
ENDCHAR
STARTCHAR Ediaeresis
ENCODING 203
SWIDTH 396 0
DWIDTH 22 0
BBX 19 19 3 0
BITMAP
0c0080
3e03e0
630c60
420c60
c60cc0
7e0f80
3c1f00
0c3b80
1ce180
19c180
1b0300
3e0300
3c0700
380600
780600
700e00
600c00
e00c00
c00c00
ENDCHAR
STARTCHAR Igrave
ENCODING 204
SWIDTH 432 0
DWIDTH 24 0
BBX 26 22 2 0
BITMAP
00001800
00007cc0
0000cd80
1e008f80
3f04de00
6304fc00
420c3800
c61c3000
7e3c3000
3c7c7000
0c6e6000
1cc66000
1986e000
1b06c000
3f06c000
3607c000
3c078000
78078000
78078000
70030000
e0030000
e0070000
ENDCHAR
STARTCHAR Iacute
ENCODING 205
SWIDTH 360 0
DWIDTH 20 0
BBX 18 19 1 0
BITMAP
003c00
01ff80
0783c0
1c01c0
0801c0
0101c0
0fc1c0
1dc180
18c380
318380
3b8300
3f0700
700700
700600
600e00
e00e00
e01c00
fffc00
7ff800
ENDCHAR
STARTCHAR Icircumflex
ENCODING 206
SWIDTH 360 0
DWIDTH 20 0
BBX 21 19 1 0
BITMAP
007c10
03ff38
0c01f0
0c01c0
0fffc0
03f980
000180
070380
1f0300
118300
318700
210600
7f0600
7c0600
600c00
c00c00
c01c00
fff800
7ff000
ENDCHAR
STARTCHAR Idiaeresis
ENCODING 207
SWIDTH 324 0
DWIDTH 18 0
BBX 16 19 3 0
BITMAP
0e00
1f07
3b86
710e
631e
ff1c
fc3c
e0ec
f1f8
7fd8
3f38
0030
0070
0070
0060
00e0
01c0
0f80
1800
ENDCHAR
STARTCHAR ETH
ENCODING 208
SWIDTH 270 0
DWIDTH 15 0
BBX 18 19 -1 0
BITMAP
01c000
0771c0
067380
0e6700
0ffe00
07fc00
03c000
000000
000000
000000
000000
000000
1e0000
3f1c00
671800
e67000
ecf000
ffc000
7f0000
ENDCHAR
STARTCHAR Ntilde
ENCODING 209
SWIDTH 0 0
DWIDTH 0 0
BBX 18 8 -12 22
BITMAP
1e0000
7e00c0
670380
c60700
ee1e00
fc7c00
7ff000
1f0000
ENDCHAR
STARTCHAR Ograve
ENCODING 210
SWIDTH 288 0
DWIDTH 16 0
BBX 13 19 2 0
BITMAP
03c0
1ff0
3038
e038
4038
0038
0030
0070
0070
0060
00e0
00e0
00c0
01c0
01c0
0380
0380
0380
0100
ENDCHAR
STARTCHAR Oacute
ENCODING 211
SWIDTH 288 0
DWIDTH 16 0
BBX 18 29 -4 0
BITMAP
1e0000
760000
630000
c60000
c60000
fc0000
700000
000000
000000
000000
001e00
00ff80
0381c0
0701c0
0201c0
0001c0
000380
000380
000380
000700
000700
000700
000e00
000e00
000e00
001c00
001c00
001c00
000800
ENDCHAR
STARTCHAR Ocircumflex
ENCODING 212
SWIDTH 0 0
DWIDTH 0 0
BBX 15 8 -18 22
BITMAP
01f0
07f8
1c1c
300e
7f86
7ffe
003e
0002
ENDCHAR
STARTCHAR Otilde
ENCODING 213
SWIDTH 36 0
DWIDTH 2 0
BBX 18 10 -18 22
BITMAP
0000c0
000180
01f180
07fd80
1e0f80
380f00
7f8700
7fff00
003e00
000200
ENDCHAR
STARTCHAR Odiaeresis
ENCODING 214
SWIDTH 0 0
DWIDTH 0 0
BBX 18 10 -19 22
BITMAP
0007c0
000cc0
01f8c0
07fd80
1c1f80
380e00
7f8600
7ffe00
003e00
000200
ENDCHAR
STARTCHAR multiply
ENCODING 215
SWIDTH 36 0
DWIDTH 2 0
BBX 18 10 -18 22
BITMAP
001cc0
001980
01f980
07ff80
1e1f80
380f00
7f8700
7fff00
003e00
000200
ENDCHAR
STARTCHAR Ooblique
ENCODING 216
SWIDTH 0 0
DWIDTH 0 0
BBX 7 12 -9 -14
BITMAP
1c
3e
66
c6
c6
fc
7c
1c
18
18
38
30
ENDCHAR
STARTCHAR Ugrave
ENCODING 217
SWIDTH 0 0
DWIDTH 0 0
BBX 13 12 -14 -14
BITMAP
1c00
3e38
6630
c630
c670
fc60
7c60
1c60
18c0
18c0
1f80
1f00
ENDCHAR
STARTCHAR Uacute
ENCODING 218
SWIDTH 0 0
DWIDTH 0 0
BBX 4 4 -6 -7
BITMAP
20
70
f0
e0
ENDCHAR
STARTCHAR Ucircumflex
ENCODING 219
SWIDTH 0 0
DWIDTH 0 0
BBX 4 4 -7 -14
BITMAP
20
70
f0
e0
ENDCHAR
STARTCHAR Udiaeresis
ENCODING 220
SWIDTH 0 0
DWIDTH 0 0
BBX 1 1 0 0
BITMAP
00
ENDCHAR
STARTCHAR Yacute
ENCODING 221
SWIDTH 0 0
DWIDTH 0 0
BBX 1 1 0 0
BITMAP
00
ENDCHAR
STARTCHAR THORN
ENCODING 222
SWIDTH 0 0
DWIDTH 0 0
BBX 1 1 0 0
BITMAP
00
ENDCHAR
STARTCHAR ssharp
ENCODING 223
SWIDTH 0 0
DWIDTH 0 0
BBX 1 1 0 0
BITMAP
00
ENDCHAR
STARTCHAR agrave
ENCODING 224
SWIDTH 198 0
DWIDTH 11 0
BBX 8 18 1 0
BITMAP
07
07
06
0e
0c
0c
1c
18
38
30
30
70
7e
77
e6
c6
ee
f8
ENDCHAR
STARTCHAR aacute
ENCODING 225
SWIDTH 360 0
DWIDTH 20 0
BBX 17 18 1 0
BITMAP
070380
070380
0e0300
0e0700
0e0600
1c0600
1c0e00
180c00
381c00
301800
301800
703800
7e3f00
773b00
e77300
c66300
ee7600
fc7c00
ENDCHAR
STARTCHAR acircumflex
ENCODING 226
SWIDTH 216 0
DWIDTH 12 0
BBX 18 34 -1 0
BITMAP
01fc40
07ffc0
1f0f80
07c000
03e000
00e000
00e000
00e000
01e000
01c000
01c000
03c000
038000
038000
030000
070000
070000
060000
0e0000
0e0000
0c0000
1c0000
180000
180000
380000
300000
300000
700000
7f0000
770000
e70000
e70000
ee0000
fc0000
ENDCHAR
STARTCHAR atilde
ENCODING 227
SWIDTH 216 0
DWIDTH 12 0
BBX 12 34 0 0
BITMAP
07e0
0e70
1870
1f70
3b70
33e0
36e0
1ce0
01c0
01c0
0180
0180
0380
0300
0300
0700
0600
0600
0e00
0c00
0c00
1c00
1800
1800
3800
3000
3000
7000
7e00
7700
e700
c600
ee00
f800
ENDCHAR
STARTCHAR adiaeresis
ENCODING 228
SWIDTH 252 0
DWIDTH 14 0
BBX 12 34 2 0
BITMAP
30f0
30f0
31f0
3360
3360
36e0
34c0
3cc0
39c0
3180
1180
0380
0300
0300
0300
0600
0600
0600
0e00
0c00
0c00
1c00
1800
1800
3800
3000
3000
7000
7e00
6600
c600
c600
ec00
f800
ENDCHAR
STARTCHAR aring
ENCODING 229
SWIDTH 288 0
DWIDTH 16 0
BBX 13 29 4 -10
BITMAP
03c0
1ff0
3038
e038
4038
0038
0030
0070
0070
0060
00e0
00e0
00c0
01c0
01c0
0180
0380
0380
0300
0700
0700
0600
0e00
0e00
0c00
1c00
1c00
1800
1800
ENDCHAR
STARTCHAR ae
ENCODING 230
SWIDTH 396 0
DWIDTH 22 0
BBX 14 27 8 -8
BITMAP
0610
1ff8
319c
600c
600c
dc1c
f618
e218
c418
fc30
7830
0030
0060
0060
0060
00c0
00c0
00c0
0180
0180
0180
0300
0700
0e00
7c00
7000
4000
ENDCHAR
STARTCHAR ccedilla
ENCODING 231
SWIDTH 0 0
DWIDTH 0 0
BBX 16 11 -16 22
BITMAP
0003
0002
000e
1ffc
7800
6000
cc78
df98
f398
c1b0
40e0
ENDCHAR
STARTCHAR egrave
ENCODING 232
SWIDTH 0 0
DWIDTH 0 0
BBX 4 7 -6 34
BITMAP
30
30
60
60
60
c0
c0
ENDCHAR
STARTCHAR eacute
ENCODING 233
SWIDTH 0 0
DWIDTH 0 0
BBX 13 8 -11 33
BITMAP
1800
7c18
4c30
cc30
f860
78c0
3380
7e00
ENDCHAR
STARTCHAR ecircumflex
ENCODING 234
SWIDTH 0 0
DWIDTH 0 0
BBX 14 8 -13 33
BITMAP
0004
3fcc
64c8
d0c8
f890
88b0
91c0
6300
ENDCHAR
STARTCHAR ediaeresis
ENCODING 235
SWIDTH 0 0
DWIDTH 0 0
BBX 10 8 -9 33
BITMAP
0600
0600
0e00
ffc0
ffc0
1c00
1800
1800
ENDCHAR
STARTCHAR igrave
ENCODING 236
SWIDTH 0 0
DWIDTH 0 0
BBX 13 10 -9 31
BITMAP
0018
0018
03f0
1fc0
7000
5c00
e600
e400
fc00
7800
ENDCHAR
STARTCHAR iacute
ENCODING 237
SWIDTH 0 0
DWIDTH 0 0
BBX 7 7 -9 21
BITMAP
1c
7e
46
86
c4
f8
70
ENDCHAR
STARTCHAR icircumflex
ENCODING 238
SWIDTH 0 0
DWIDTH 0 0
BBX 7 7 -10 27
BITMAP
08
3e
66
c6
86
cc
78
ENDCHAR
STARTCHAR idiaeresis
ENCODING 239
SWIDTH 342 0
DWIDTH 19 0
BBX 20 18 -1 0
BITMAP
00ff80
03ffe0
070060
0c3870
18fe30
31fe30
73ff30
67ff30
67fe20
cffe60
cffc60
c7fcc0
c7f180
e3e380
600700
781c00
3ff800
0fc000
ENDCHAR
STARTCHAR eth
ENCODING 240
SWIDTH 360 0
DWIDTH 20 0
BBX 18 14 1 0
BITMAP
01fe00
07ff80
0f8780
1e07c0
3c03c0
7803c0
7803c0
f003c0
f00780
f00f80
f01f00
783e00
7ff800
3fe000
ENDCHAR
STARTCHAR ntilde
ENCODING 241
SWIDTH 360 0
DWIDTH 20 0
BBX 18 15 1 -1
BITMAP
00fe00
07ff00
0f0780
1e03c0
3803c0
73fbc0
67fbc0
f77bc0
ff7b80
fff780
f3e700
7fcf00
3f9e00
003800
006000
ENDCHAR
STARTCHAR ograve
ENCODING 242
SWIDTH 432 0
DWIDTH 24 0
BBX 21 20 1 0
BITMAP
040000
1e0000
0e0000
0c0000
0c0000
1c0000
181870
18fdf8
39cf38
3b8638
33f238
773030
763030
663070
e7e060
e3c060
e000e0
f001c0
ffff80
3fff00
ENDCHAR
STARTCHAR oacute
ENCODING 243
SWIDTH 414 0
DWIDTH 23 0
BBX 20 14 1 0
BITMAP
03e1e0
07f7f0
1c3c70
183830
303830
703030
603030
6c3060
fe7060
e260e0
c2e0c0
c6e1c0
fcc180
784100
ENDCHAR
STARTCHAR ocircumflex
ENCODING 244
SWIDTH 414 0
DWIDTH 23 0
BBX 26 21 1 0
BITMAP
000001c0
00000180
00000180
00000300
00000300
00000600
00000c00
00707800
03fff000
0fc78000
1c000000
30700000
60f80000
61080000
c3180000
c3b00000
c1e00000
e0e00000
f07f0000
7fff8000
1fc18000
ENDCHAR
STARTCHAR otilde
ENCODING 245
SWIDTH 414 0
DWIDTH 23 0
BBX 26 21 1 0
BITMAP
000001c0
00000180
00040180
001f0300
00330300
00230600
00620c00
007e7800
03fff000
0fcf8000
1c000000
30700000
60f80000
61080000
c3180000
c3b00000
c1e00000
e0e00000
f07f0000
7fff8000
1fc18000
ENDCHAR
STARTCHAR odiaeresis
ENCODING 246
SWIDTH 324 0
DWIDTH 18 0
BBX 15 21 1 0
BITMAP
0c00
1c00
1c00
1c00
1c00
1c00
1c00
1ff8
1ffc
1c1e
100e
000e
000e
1c0e
3e0c
661c
c638
ce78
fdf0
7fc0
3f00
ENDCHAR
STARTCHAR division
ENCODING 247
SWIDTH 432 0
DWIDTH 24 0
BBX 26 20 1 0
BITMAP
000000c0
00000180
00000300
00000300
00000600
00000600
00000600
07cf0c00
0fdf8c00
18f18c00
30619800
70619800
60039800
e0033000
fe073000
ff066000
e30cc000
e61b8000
fe3f0000
781c0000
ENDCHAR
STARTCHAR oslash
ENCODING 248
SWIDTH 414 0
DWIDTH 23 0
BBX 24 20 1 0
BITMAP
000003
000007
000006
000006
000006
00000c
00f01c
07fff8
0ffff0
3c0000
300100
600780
e00fc0
c618c0
cf19c0
dfdfc0
f9df80
71e380
70ff00
307e00
ENDCHAR
STARTCHAR ugrave
ENCODING 249
SWIDTH 378 0
DWIDTH 21 0
BBX 22 20 0 0
BITMAP
00000c
00000c
00000c
00000c
000018
000018
000018
03e7b0
0ff7e0
1c3cc0
301c00
601c00
601c00
c38c00
c7cc00
ccce00
f8ce00
f98600
7f8600
3e0600
ENDCHAR
STARTCHAR uacute
ENCODING 250
SWIDTH 990 0
DWIDTH 55 0
BBX 54 2 1 8
BITMAP
fffffffffff000
fffffffffffffc
ENDCHAR
STARTCHAR ucircumflex
ENCODING 251
SWIDTH 504 0
DWIDTH 28 0
BBX 27 2 0 8
BITMAP
fffffc00
ffffffe0
ENDCHAR
STARTCHAR udiaeresis
ENCODING 252
SWIDTH 0 0
DWIDTH 0 0
BBX 7 12 -9 -23
BITMAP
1c
7e
46
c6
c4
fc
7c
18
18
18
30
30
ENDCHAR
STARTCHAR yacute
ENCODING 253
SWIDTH 0 0
DWIDTH 0 0
BBX 13 12 -14 -23
BITMAP
1c18
7e38
4630
c630
c470
fc60
7c60
18e0
18c0
18c0
1f80
0f00
ENDCHAR
STARTCHAR thorn
ENCODING 254
SWIDTH 468 0
DWIDTH 26 0
BBX 24 24 1 -1
BITMAP
000fe0
003ff8
00f03c
01c00c
030006
067f83
0c31c3
1830c1
3060c1
2061c1
606381
40fc03
c0dc02
c0ce02
81ce04
81860c
818718
c7c790
c00020
6000c0
700180
380700
0ffc00
01c000
ENDCHAR
STARTCHAR ydiaeresis
ENCODING 255
SWIDTH 0 0
DWIDTH 0 0
BBX 1 1 0 0
BITMAP
00
ENDCHAR
ENDFONT
